<?xml version="1.0" encoding="utf-8"?>
<!-- Generator: Adobe Illustrator 25.2.0, SVG Export Plug-In . SVG Version: 6.00 Build 0)  -->
<svg version="1.1" id="Layer_1" xmlns="http://www.w3.org/2000/svg" xmlns:xlink="http://www.w3.org/1999/xlink" x="0px" y="0px"
	 viewBox="0 0 198.904 45" style="enable-background:new 0 0 198.904 45;" xml:space="preserve">
<style type="text/css">
	.st0{fill:#6A73E5;}
	.st1{fill:#ED3543;}
	.st2{clip-path:url(#SVGID_2_);}
	.st3{fill:#E03A3E;}
	.st4{fill:#FFFFFF;}
	.st5{fill:#231F20;}
</style>
<g>
	<g>
		<path class="st0" d="M60.396,20.505l-3.1,9.39h-3.987L63.452,0.044h4.651l10.186,29.852H74.17l-3.188-9.39H60.396z M70.184,17.495
			l-2.923-8.592c-0.665-1.95-1.107-3.721-1.55-5.448h-0.089c-0.443,1.771-0.93,3.588-1.506,5.403l-2.922,8.637H70.184z"/>
		<path class="st0" d="M97.414,24.049c0,2.215,0.045,4.163,0.178,5.846h-3.455l-0.222-3.498h-0.088
			c-1.019,1.727-3.277,3.986-7.087,3.986c-3.366,0-7.396-1.861-7.396-9.39V8.459h3.896v11.871c0,4.074,1.242,6.82,4.784,6.82
			c2.613,0,4.43-1.814,5.138-3.542c0.222-0.577,0.354-1.287,0.354-1.994V8.459h3.898V24.049z"/>
		<path class="st0" d="M101.368,25.91c1.152,0.752,3.19,1.55,5.138,1.55c2.835,0,4.163-1.417,4.163-3.189
			c0-1.861-1.106-2.881-3.986-3.942c-3.855-1.373-5.67-3.499-5.67-6.068c0-3.454,2.789-6.29,7.397-6.29
			c2.169,0,4.075,0.621,5.27,1.329l-0.975,2.835c-0.841-0.531-2.391-1.241-4.385-1.241c-2.303,0-3.587,1.329-3.587,2.924
			c0,1.772,1.284,2.568,4.073,3.633c3.721,1.417,5.625,3.276,5.625,6.465c0,3.765-2.922,6.424-8.016,6.424
			c-2.348,0-4.519-0.575-6.024-1.463L101.368,25.91z"/>
		<path class="st0" d="M123.476,2.302v6.157h5.581v2.967h-5.581v11.561c0,2.658,0.753,4.163,2.923,4.163
			c1.02,0,1.772-0.132,2.259-0.264l0.176,2.923c-0.753,0.309-1.949,0.531-3.455,0.531c-1.814,0-3.277-0.575-4.207-1.64
			c-1.107-1.15-1.505-3.055-1.505-5.579V11.425h-3.322V8.459h3.322V3.321L123.476,2.302z"/>
		<path class="st0" d="M132.453,15.147c0-2.524-0.045-4.695-0.177-6.688h3.411l0.132,4.207h0.178
			c0.974-2.878,3.322-4.694,5.935-4.694c0.441,0,0.753,0.045,1.107,0.132v3.678c-0.398-0.09-0.797-0.134-1.329-0.134
			c-2.747,0-4.695,2.081-5.226,5.004c-0.089,0.531-0.177,1.151-0.177,1.816v11.427h-3.855V15.147z"/>
		<path class="st0" d="M158.15,29.896l-0.309-2.702h-0.133c-1.195,1.684-3.498,3.19-6.555,3.19c-4.341,0-6.556-3.055-6.556-6.157
			c0-5.182,4.607-8.016,12.888-7.972v-0.443c0-1.772-0.486-4.961-4.87-4.961c-1.993,0-4.075,0.621-5.581,1.594l-0.887-2.568
			c1.771-1.152,4.341-1.906,7.043-1.906c6.555,0,8.15,4.473,8.15,8.771v8.016c0,1.861,0.088,3.676,0.353,5.138H158.15z
			 M157.575,18.957c-4.252-0.089-9.081,0.665-9.081,4.826c0,2.525,1.684,3.721,3.678,3.721c2.79,0,4.561-1.771,5.181-3.588
			c0.132-0.398,0.221-0.839,0.221-1.24V18.957z"/>
		<rect x="165.646" y="0.044" class="st0" width="3.898" height="29.853"/>
		<path class="st0" d="M178.569,2.435c0.043,1.329-0.932,2.392-2.482,2.392c-1.372,0-2.347-1.062-2.347-2.392
			c0-1.373,1.018-2.435,2.435-2.435C177.637,0,178.569,1.062,178.569,2.435 M174.227,8.459h3.898v21.437h-3.898V8.459z"/>
		<path class="st0" d="M195.361,29.896l-0.309-2.702h-0.133c-1.195,1.684-3.499,3.19-6.555,3.19c-4.341,0-6.556-3.055-6.556-6.157
			c0-5.182,4.607-8.016,12.888-7.972v-0.443c0-1.772-0.486-4.961-4.87-4.961c-1.993,0-4.075,0.621-5.58,1.594l-0.887-2.568
			c1.771-1.152,4.341-1.906,7.043-1.906c6.555,0,8.15,4.473,8.15,8.771v8.016c0,1.861,0.088,3.676,0.353,5.138H195.361z
			 M194.785,18.957c-4.252-0.089-9.08,0.665-9.08,4.826c0,2.525,1.683,3.721,3.678,3.721c2.79,0,4.561-1.771,5.182-3.588
			c0.132-0.398,0.221-0.839,0.221-1.24V18.957z"/>
	</g>
	<g>
		<polygon class="st1" points="89.231,33.828 96.085,33.828 96.085,35.019 90.649,35.019 90.649,38.672 94.808,38.672 
			94.808,39.846 90.649,39.846 90.649,44.82 89.231,44.82 		"/>
		<path class="st1" d="M113.054,39.21c0,3.783-2.3,5.79-5.105,5.79c-2.903,0-4.942-2.251-4.942-5.577
			c0-3.49,2.169-5.774,5.105-5.774C111.113,33.649,113.054,35.949,113.054,39.21 M104.524,39.39c0,2.348,1.272,4.452,3.506,4.452
			c2.251,0,3.523-2.071,3.523-4.566c0-2.186-1.142-4.469-3.507-4.469C105.698,34.806,104.524,36.976,104.524,39.39"/>
		<path class="st1" d="M121.017,33.975c0.717-0.147,1.745-0.229,2.723-0.229c1.517,0,2.495,0.277,3.18,0.897
			c0.554,0.489,0.865,1.239,0.865,2.088c0,1.452-0.913,2.414-2.072,2.805v0.05c0.848,0.293,1.354,1.076,1.615,2.217
			c0.359,1.534,0.619,2.594,0.848,3.017h-1.468c-0.179-0.309-0.424-1.255-0.733-2.625c-0.326-1.517-0.914-2.088-2.202-2.137h-1.337
			v4.762h-1.418V33.975z M122.436,38.982h1.452c1.516,0,2.479-0.832,2.479-2.088c0-1.419-1.028-2.039-2.528-2.055
			c-0.685,0-1.174,0.065-1.402,0.13V38.982z"/>
		<path class="st1" d="M137.127,33.828v6.507c0,2.463,1.093,3.507,2.56,3.507c1.631,0,2.675-1.076,2.675-3.507v-6.507h1.435v6.41
			c0,3.376-1.778,4.762-4.159,4.762c-2.251,0-3.947-1.288-3.947-4.697v-6.475H137.127z"/>
		<path class="st1" d="M161.319,39.993c-0.082-1.533-0.18-3.376-0.163-4.745h-0.049c-0.376,1.288-0.832,2.657-1.386,4.175
			l-1.941,5.333h-1.077l-1.778-5.235c-0.522-1.549-0.962-2.968-1.272-4.272h-0.033c-0.032,1.37-0.114,3.212-0.212,4.859
			l-0.293,4.714h-1.353l0.766-10.992h1.81l1.876,5.317c0.456,1.354,0.832,2.561,1.109,3.702h0.049
			c0.277-1.109,0.668-2.316,1.158-3.702l1.957-5.317h1.81l0.685,10.992h-1.386L161.319,39.993z"/>
	</g>
	<g>
		<defs>
			<path id="SVGID_1_" d="M7.917,0.515c-0.12,0.084-0.239,0.159-0.382,0.202c-1.08,0.327-1.515,1.179-1.732,2.182
				C5.699,3.378,5.666,3.872,5.771,4.362C5.79,4.451,5.82,4.554,5.752,4.631C5.212,5.234,4.939,6.125,3.965,6.26
				C3.787,6.284,3.622,6.395,3.45,6.464C3.083,6.611,2.812,6.85,2.752,7.26C2.629,8.09,2.124,8.664,1.511,9.18
				C1.075,9.548,0.66,9.941,0.331,10.414c-0.442,0.634-0.439,0.895,0,1.514c0.092,0.13,0.159,0.275,0.244,0.41
				c0.081,0.129,0.198,0.258,0.353,0.194c0.262-0.108,0.487-0.006,0.725,0.059c0.457,0.123,0.898,0.071,1.308-0.162
				c0.442-0.251,0.92-0.456,1.428-0.521c0.504-0.065,1.026,0.035,1.52-0.118c0.455-0.141,0.804-0.374,1.243-0.029
				c0.747,0.588,1.24,1.392,1.819,2.13c0.379,0.484,0.835,0.98,1.344,1.331c0.872,0.601,1.44,1.508,2.476,1.841
				c0.907,0.293,1.807,0.604,2.718,0.883c2.495,0.764,3.02,3.615,4.433,5.449c0.072,0.094,0.153,0.206,0.255,0.246
				c0.819,0.326,1.607,0.749,2.504,0.847c0.302,0.033,0.599,0.138,0.9,0.141c0.703,0.009,1.279-0.279,1.727-0.856
				c-0.107-0.012-0.198-0.021-0.359-0.039c0.187-0.137,0.34-0.249,0.563-0.413c-0.378-0.1-0.591-0.015-0.815,0.105
				c-0.139,0.075-0.315,0.29-0.45-0.083c-0.034-0.091-0.151-0.081-0.287-0.071c-0.118,0.008-0.252,0.016-0.359-0.041
				c0.092-0.291,0.472-0.432,0.455-0.77c-0.077-0.07-0.109-0.016-0.14,0.02c-0.389,0.447-0.51,0.476-1.045,0.223
				c-0.301-0.143-0.596-0.28-0.949-0.24c-0.202,0.023-0.349-0.122-0.457-0.275c-0.744-1.042-1.34-2.16-1.716-3.388
				c-0.05-0.163-0.085-0.293,0.183-0.303c1.699-0.065,3.401-0.057,5.096-0.208c0.208-0.019,0.239,0.135,0.308,0.251
				c0.511,0.853,1.024,1.705,1.61,2.511c0.776,1.066,1.634,2.061,2.613,2.944c0.931,0.84,1.61,1.862,2.242,2.928
				c0.667,1.125,1.305,2.267,1.922,3.419c0.319,0.596,0.633,1.195,0.942,1.796c0.226,0.439,0.754,1.086,0.592,1.603
				c-0.059,0.191-0.204,0.342-0.343,0.486c-0.64,0.661-1.302,1.3-1.94,1.962c-0.586,0.607-1.271,1.247-1.686,1.988
				c-0.297,0.53-0.585,1.094-0.828,1.676c-0.278,0.664-0.497,1.352-0.605,2.043c-0.157,1.001-0.28,1.998,0.005,2.998
				c0.078,0.074,0.188,0.165,0.258,0.048c0.125-0.21,0.353-0.188,0.521-0.292c0.273-0.284,0.523-0.587,0.743-0.915
				c0.017-0.16,0.052-0.277,0.197-0.407c0.215-0.192,0.509-0.402,0.406-0.784c-0.014-0.053,0.001-0.051,0.054-0.036
				c0.21,0.062,0.278-0.078,0.311-0.245c0.018-0.099,0.073-0.086,0.128-0.074c0.033,0.008,0.067,0.014,0.092-0.004
				c0.087-0.016,0.08-0.092,0.097-0.153c-0.087-0.221,0.046-0.289,0.226-0.324c0.318-0.393,0.588-0.8,0.672-1.323
				c0.102-0.641,0.487-1.14,0.942-1.582c1.58-1.537,3.167-3.066,4.743-4.605c0.688-0.671,0.701-0.983,0.27-1.823
				c-1.285-2.496-2.709-4.928-3.631-7.595c-0.406-1.175-0.845-2.342-1.049-3.577c-0.02-0.129-0.038-0.268-0.016-0.394
				c0.118-0.653,0.335-0.772,0.833-0.433c0.376,0.256,0.832,0.346,1.278,0.417c0.815,0.13,1.547-0.034,2.164-0.631
				c0.532-0.515,1.019-1.064,1.446-1.72c1.009,2.489,2.133,4.868,3.342,7.208c0.884,1.712,1.809,3.405,2.81,5.052
				c0.5,0.823,1.02,1.635,1.562,2.431c0.742,1.088,1.503,2.131,2.522,2.97c0.444,0.366,0.92,0.692,1.423,0.972
				c0.993,0.553,2.081,0.919,3.2,1.114c2.125,0.371,4.205,0.087,6.239-0.572c0.594-0.191,1.127-0.526,1.654-0.856
				c0.13-0.081,0.263-0.183,0.288-0.364c-0.238-0.05-0.449,0.042-0.661,0.115c-2.396,0.833-4.963,0.739-7.321-0.152
				c-0.837-0.316-1.683-0.629-2.392-1.192c-0.98-0.779-1.682-1.837-2.322-2.898c-0.501-0.83-0.96-1.683-1.378-2.557
				c-0.592-1.236-1.152-2.49-1.578-3.793c-0.787-2.405-1.14-4.923-1.814-7.358c-0.413-1.493-0.821-2.987-1.343-4.45
				c-0.66-1.847-1.876-3.413-3.17-4.86c-1.273-1.424-2.633-2.795-4.222-3.865c-1.664-1.12-3.581-1.794-5.54-2.174
				c-1.958-0.381-4.07-0.624-6.056-0.348c-0.84,0.118-1.654,0.351-2.478,0.547c-0.84,0.2-1.685,0.409-2.469,0.777
				c-0.758,0.354-1.396,0.889-2.072,1.373c-0.824,0.588-1.652,1.178-2.52,1.699c-0.612,0.368-1.263,0.668-1.938,0.901
				c-0.688,0.237-1.414,0.308-2.1,0.543c-0.173,0.059-0.259-0.083-0.358-0.189c-0.464-0.495-0.919-1.031-1.434-1.473
				C9.93,6.601,9.145,6.087,8.94,5.387c-0.066-0.225,0.056-0.459,0.163-0.65c0.577-1.029,0.38-2.135,0.151-3.223
				C9.225,1.376,9.151,1.27,8.989,1.262C8.68,1.246,8.588,1.074,8.553,0.775c-0.042-0.356-0.07-0.512-0.184-0.512
				C8.283,0.263,8.146,0.354,7.917,0.515"/>
		</defs>
		<clipPath id="SVGID_2_">
			<use xlink:href="#SVGID_1_"  style="overflow:visible;"/>
		</clipPath>
		<g class="st2">
			<rect y="0.263" class="st0" width="64.703" height="44.737"/>
		</g>
		<g class="st2">
			<polygon class="st3" points="20.732,0.263 9.519,5.639 12.203,5.639 23.373,0.263 			"/>
		</g>
		<g class="st2">
			<polygon class="st4" points="23.373,0.263 19.278,0.263 9.353,5.006 9.974,2.481 9.353,0.263 3.764,0.263 3.764,5.006 0,3.207 
				0,13.44 3.764,11.642 3.764,16.385 9.353,16.385 9.353,11.642 19.278,16.385 23.373,16.385 23.373,14.425 16.242,11.012 
				23.373,11.012 23.373,5.635 16.242,5.635 23.373,2.222 			"/>
			<polygon class="st3" points="0,6.751 4.954,6.751 4.954,0.263 8.239,0.263 8.239,6.751 23.373,6.751 23.373,9.899 8.239,9.899 
				8.239,16.385 4.954,16.385 4.954,9.899 0,9.899 			"/>
			<polygon class="st3" points="0,12.772 3.674,11.012 0.99,11.012 0,11.486 			"/>
		</g>
		<g class="st2">
			<path class="st5" d="M12.203,5.698H9.519L9.494,5.587l11.239-5.382h2.641l0.025,0.111L12.203,5.698z M9.775,5.581h2.415
				l10.928-5.259h-2.372L9.775,5.581z"/>
		</g>
		<g class="st2">
			<polygon class="st3" points="23.373,16.385 12.192,11.011 14.887,11.011 23.373,15.103 			"/>
		</g>
		<g class="st2">
			<polygon class="st3" points="1.013,5.639 -10.221,0.263 -10.221,1.547 -1.694,5.639 			"/>
		</g>
		<g class="st2">
			<path class="st5" d="M1.013,5.697L-1.72,5.692L-10.247,1.6l-0.033-0.053V0.263l0.083-0.052L1.038,5.587L1.013,5.697z
				 M-1.681,5.581h2.438l-10.92-5.225v1.155L-1.681,5.581z"/>
		</g>
		<g class="st2">
			<polygon class="st4" points="40.693,4.707 42.103,4.194 41.274,5.392 42.556,6.124 41.066,6.25 41.273,7.673 40.231,6.63 
				39.196,7.673 39.396,6.25 37.912,6.124 39.188,5.392 38.365,4.194 39.769,4.707 40.231,3.337 			"/>
		</g>
		<g class="st2">
			<polygon class="st4" points="40.693,26.206 42.103,25.693 41.274,26.89 42.556,27.622 41.066,27.748 41.273,29.171 
				40.231,28.128 39.196,29.171 39.396,27.748 37.912,27.622 39.188,26.89 38.365,25.693 39.769,26.206 40.231,24.835 			"/>
		</g>
		<g class="st2">
			<polygon class="st4" points="48.168,11.286 49.578,10.773 48.75,11.97 50.032,12.702 48.542,12.829 48.748,14.251 47.706,13.208 
				46.672,14.251 46.872,12.829 45.388,12.702 46.663,11.97 45.841,10.773 47.244,11.286 47.706,9.915 			"/>
		</g>
		<g class="st2">
			<polygon class="st4" points="32.283,13.441 33.693,12.928 32.864,14.125 34.146,14.858 32.656,14.984 32.863,16.407 
				31.821,15.363 30.786,16.407 30.986,14.984 29.503,14.858 30.778,14.125 29.956,12.928 31.359,13.441 31.821,12.071 			"/>
		</g>
		<g class="st2">
			<polygon class="st4" points="43.594,16.324 43.271,17.296 42.199,17.299 43.071,17.901 42.74,18.872 43.6,18.267 44.464,18.868 
				44.131,17.89 44.995,17.296 43.927,17.298 			"/>
		</g>
	</g>
</g>
</svg>
